<?xml version="1.0" encoding="UTF-8"?>
<svg id="Capa_1" xmlns="http://www.w3.org/2000/svg" version="1.1" viewBox="0 0 100 100">
  <!-- Generator: Adobe Illustrator 30.0.0, SVG Export Plug-In . SVG Version: 2.1.1 Build 123)  -->
  <defs>
    <style>
      .st0 {
        fill: #e9edfd;
      }
    </style>
  </defs>
  <path class="st0" d="M71.69,42.18H31.5c-3.98.74-5.59,2.9-6.72,4.32-5.37,6.76-1.58,17.97,7.09,19.11,3.28.43,10.36-1.21,10.18,4.35s-8.28,4.2-11.83,3.52c-16.45-3.19-21.83-24.53-8.72-35.08,1.15-1.01,4.86-3.91,10.69-4.49h39.5c-1.92-3.05-8.63-7.4-9.65-10.55-1.19-3.7,3.09-6.87,6.21-4.47l16.73,16.73c1.2,1.56,1.1,3.3,0,4.86-1.68,2.39-13.94,14.57-16.39,16.38-4.36,3.23-8.77-1.52-5.71-5.71,2.21-3.02,6.56-5.77,8.81-8.96Z"/>
</svg>