<?xml version="1.0" encoding="UTF-8"?>
<svg id="Capa_1" data-name="Capa 1" xmlns="http://www.w3.org/2000/svg" viewBox="0 0 254.64 254.64">
  <defs>
    <style>
      .cls-1 {
        fill: #877dc0;
      }
    </style>
  </defs>
  <g>
    <path class="cls-1" d="M92.12,207.28l64.73,2.28c5.41.19-7.04,15.64-7.22,20.83l-.53,15.2c-.18,5.19-4.72,9.25-10.13,9.05l-32.46-1.14c-5.41-.19-9.65-4.55-9.46-9.74l.53-15.2c.18-5.19-10.87-21.46-5.46-21.27Z"/>
    <path class="cls-1" d="M45.89,158.97l44.16,47.38c3.69,3.96-16.03,6.08-19.83,9.62l-11.13,10.37c-3.8,3.54-9.87,3.2-13.56-.76l-22.15-23.76c-3.69-3.96-3.6-10.04.2-13.58l11.13-10.37c3.8-3.54,7.49-22.86,11.18-18.9Z"/>
    <path class="cls-1" d="M47.36,92.12l-2.28,64.73c-.19,5.41-15.64-7.04-20.83-7.22l-15.2-.53c-5.19-.18-9.25-4.72-9.05-10.13l1.14-32.46c.19-5.41,4.55-9.65,9.74-9.46l15.2.53c5.19.18,21.46-10.87,21.27-5.46Z"/>
    <path class="cls-1" d="M95.68,45.89l-47.38,44.16c-3.96,3.69-6.08-16.03-9.62-19.83l-10.37-11.13c-3.54-3.8-3.2-9.87.76-13.56l23.76-22.15c3.96-3.69,10.04-3.6,13.58.2l10.37,11.13c3.54,3.8,22.86,7.49,18.9,11.18Z"/>
    <path class="cls-1" d="M162.53,47.36l-64.73-2.28c-5.41-.19,7.04-15.64,7.22-20.83l.53-15.2C105.73,3.87,110.27-.18,115.68,0l32.46,1.14c5.41.19,9.65,4.55,9.46,9.74l-.53,15.2c-.18,5.19,10.87,21.46,5.46,21.27Z"/>
    <path class="cls-1" d="M208.75,95.68l-44.16-47.38c-3.69-3.96,16.03-6.08,19.83-9.62l11.13-10.37c3.8-3.54,9.87-3.2,13.56.76l22.15,23.76c3.69,3.96,3.6,10.04-.2,13.58l-11.13,10.37c-3.8,3.54-7.49,22.86-11.18,18.9Z"/>
    <path class="cls-1" d="M207.28,162.53l2.28-64.73c.19-5.41,15.64,7.04,20.83,7.22l15.2.53c5.19.18,9.25,4.72,9.05,10.13l-1.14,32.46c-.19,5.41-4.55,9.65-9.74,9.46l-15.2-.53c-5.19-.18-21.46,10.87-21.27,5.46Z"/>
    <path class="cls-1" d="M158.97,208.75l47.38-44.16c3.96-3.69,6.08,16.03,9.62,19.83l10.37,11.13c3.54,3.8,3.2,9.87-.76,13.56l-23.76,22.15c-3.96,3.69-10.04,3.6-13.58-.2l-10.37-11.13c-3.54-3.8-22.86-7.49-18.9-11.18Z"/>
  </g>
  <path class="cls-1" d="M222.7,120.94c-2.52-48.93-46.27-89.97-95.28-89.25h-.2c-67.97-.02-114.73,70.4-87.85,132.95,18.09,43.83,69.14,68.29,114.57,54.43,42.15-11.63,72.35-54.51,68.77-98.14ZM127.32,184.28c-31.46,0-56.96-25.5-56.96-56.96s25.5-56.96,56.96-56.96,56.96,25.5,56.96,56.96-25.5,56.96-56.96,56.96Z"/>
</svg>