<?xml version="1.0" encoding="UTF-8"?>
<svg id="Capa_1" data-name="Capa 1" xmlns="http://www.w3.org/2000/svg" viewBox="0 0 298.18 270.04">
  <defs>
    <style>
      .cls-1 {
        fill: #7f75b3;
      }
    </style>
  </defs>
  <path class="cls-1" d="M8.02,141.55c-.38.28,3.54,117.39,140.3,128.49,137.94-10.84,142.79-129.01,142.34-129.37-.47-.37-118.01-7.13-142.01,127.1C119.12,128.95,8.41,141.26,8.02,141.55Z"/>
  <path class="cls-1" d="M150.33,238.05c-12.38-31.73-4.28-58.84,11.86-88.99,11.09-20.38,42.82-50.55,61.39-53.91,1.91-.34,14.6,34.81,10.06,46.43-33.53,15.73-72.22,44.36-83.31,96.47Z"/>
  <path class="cls-1" d="M135.39,205.41c.99-16.55,4.23-27.35,7.94-40.32-13.54-43.63-64.23-71.5-70.12-69.94-4.98,5.56-9.71,35.36-6.28,49.95,30.11,9,54.61,37.66,68.46,60.31Z"/>
  <path class="cls-1" d="M149.19,155.52c9.42-20.07,18.06-33.81,38.59-49.86-7.72-20.22-27.8-44.85-39.38-53.65-12.81,11.11-32.71,35.28-38.42,53.96,16.52,14.05,31.5,29.33,39.21,49.55Z"/>
  <circle class="cls-1" cx="5.74" cy="109.51" r="5.74"/>
  <circle class="cls-1" cx="70.87" cy="50.14" r="5.74"/>
  <circle class="cls-1" cx="148.89" cy="5.74" r="5.74"/>
  <circle class="cls-1" cx="227.38" cy="50.56" r="5.74"/>
  <circle class="cls-1" cx="292.43" cy="109.75" r="5.74"/>
</svg>