<?xml version="1.0" encoding="UTF-8"?>
<svg id="Capa_1" data-name="Capa 1" xmlns="http://www.w3.org/2000/svg" viewBox="0 0 239.16 247.8">
  <path d="M212.86,24.83h-7.22v-11.46c0-7.38-5.99-13.37-13.37-13.37s-13.37,5.99-13.37,13.37v11.46h-21.72v-11.46c0-7.38-5.99-13.37-13.37-13.37s-13.37,5.99-13.37,13.37v11.46h-21.72v-11.46c0-7.38-5.99-13.37-13.37-13.37s-13.37,5.99-13.37,13.37v11.46h-21.72v-11.46c0-7.38-5.99-13.37-13.37-13.37s-13.37,5.99-13.37,13.37v11.46h-7.22C11.77,24.83,0,36.6,0,51.13v22.25h239.16v-22.25c0-14.52-11.77-26.3-26.3-26.3ZM51.86,24.83h-9.94v-7.45c0-4.34,2.23-7.86,4.97-7.86s4.97,3.52,4.97,7.86v7.45ZM100.32,24.83h-9.94v-7.45c0-4.34,2.23-7.86,4.97-7.86s4.97,3.52,4.97,7.86v7.45ZM148.78,24.83h-9.94v-6.74c0-4.34,2.23-7.86,4.97-7.86s4.97,3.52,4.97,7.86v6.74ZM197.24,24.83h-9.94v-7.45c0-4.34,2.23-7.86,4.97-7.86s4.97,3.52,4.97,7.86v7.45Z"/>
  <path d="M0,221.5c0,14.52,11.77,26.3,26.3,26.3h186.56c14.52,0,26.3-11.77,26.3-26.3V87.76H0v133.74ZM176.89,102.15h46.98v36.41h-46.98v-36.41ZM176.89,145.31h46.98v36.41h-46.98v-36.41ZM176.89,188.46h46.98v36.41h-46.98v-36.41ZM123.02,102.15h46.98v36.41h-46.98v-36.41ZM123.02,145.31h46.98v36.41h-46.98v-36.41ZM123.02,188.46h46.98v36.41h-46.98v-36.41ZM69.15,102.15h46.98v36.41h-46.98v-36.41ZM69.15,145.31h46.98v36.41h-46.98v-36.41ZM69.15,188.46h46.98v36.41h-46.98v-36.41ZM15.28,102.15h46.98v36.41H15.28v-36.41ZM15.28,145.31h46.98v36.41H15.28v-36.41ZM15.28,188.46h46.98v36.41H15.28v-36.41Z"/>
</svg>