<?xml version="1.0" encoding="UTF-8"?>
<svg id="Capa_1" data-name="Capa 1" xmlns="http://www.w3.org/2000/svg" viewBox="0 0 250.01 248.79">
  <path d="M246.38,185.2l-115.95,55.45h0s111.43-62.98,111.43-62.98h-9.81c-12.03.27-40.81,1.66-69.19,21.41-19.01,13.23-31.89,29.8-37.86,39.8-5.97-10-18.85-26.57-37.86-39.8-28.38-19.75-57.16-21.15-69.19-21.41h-9.81l111.46,62.99L3.63,185.2l-3.63,5,123.78,58.6h2.44l123.78-58.6-3.63-5Z"/>
  <rect x="95.09" y="153.49" width="59.09" height="9.25"/>
  <path d="M140.6,94.06c-4.79,1.56-9.87,2.43-15.22,2.43s-10.89-.94-15.87-2.63c2.43,4.57,4.85,10.05,6.8,16.45,3.69,12.13,2.88,30.56,2.84,39.05h11.92c-.04-8.48-.85-26.92,2.84-39.06,1.92-6.3,4.29-11.72,6.69-16.24Z"/>
  <path d="M124.63,196.84c7.22,0,13.26-4.96,14.96-11.65h-29.92c1.7,6.69,7.74,11.65,14.96,11.65Z"/>
  <path d="M95.12,136.45c-.01.21-.03.41-.03.63v12.29h18.87c.04-8.49.85-26.92-2.84-39.05-2.37-7.79-5.44-14.24-8.38-19.3,0,0,0,0-.01,0h0c-.56-.98-1.12-1.91-1.67-2.77h.04c-.16-.28-.27-.58-.27-.92,0-1.05.85-1.89,1.89-1.89.44,0,.83.18,1.16.43v-.03c6.34,3.44,13.79,5.65,21.5,5.65s14.9-2.45,21.16-5.79v.03c.29-.17.6-.3.96-.3,1.05,0,1.89.85,1.89,1.89,0,.33-.11.63-.26.9h.03c-3.41,5.38-7.24,12.79-10.06,22.08-3.69,12.14-2.88,30.57-2.84,39.06h17.92v-12.29c0-.21-.02-.42-.03-.63,24.71-11.23,41.9-36.12,41.9-65.03C196.05,31.98,164.08,0,124.63,0S53.21,31.98,53.21,71.42c0,28.91,17.19,53.8,41.9,65.03Z"/>
  <path d="M154.18,171.91v-5.04h-59.09v5.04c0,4.61,2.57,8.62,6.36,10.67h46.36c3.79-2.05,6.36-6.06,6.36-10.67Z"/>
</svg>