<?xml version="1.0" encoding="UTF-8"?>
<svg id="Capa_1" data-name="Capa 1" xmlns="http://www.w3.org/2000/svg" viewBox="0 0 235.51 204.32">
  <path d="M31.57,63.14c.15,0,.29-.02.44-.02.15,0,.31.02.46.02h195.83c3.5,0,5.6-1.94,6.51-4.64.59-1.74.53-3.65,0-5.41-.75-2.49-2.32-4.83-5.96-5.42h-1.29c-3.72-6.61-4.29-12.35-4.17-15.68-.03-2.82,1.32-9.01,4.23-14.16h.21c4.39-.51,7.13-1.91,7.64-6.96.05-.5.05-1.02.01-1.52-.3-4.11-1.33-8.3-8.14-9.36H33.58c-.35,0-.7.01-1.05.05-.32,0-.64-.05-.96-.05C14.14,0,0,14.14,0,31.57s14.14,31.57,31.57,31.57ZM36.74,17.84c.18,0,.36.02.53.03v-.03h185.41c-1.89,3.49-3.94,8.7-4.08,15.29-.13,6.16,1.47,11.15,3.02,14.55H37.27c-.18,0-.35.02-.53.02-8.25,0-14.93-6.68-14.93-14.93s6.68-14.93,14.93-14.93Z"/>
  <path d="M227.34,70.59H33.58c-.35,0-.7.01-1.05.05-.32,0-.64-.05-.96-.05-17.44,0-31.57,14.14-31.57,31.57s14.14,31.57,31.57,31.57c.15,0,.29-.02.44-.02.15,0,.31.02.46.02h195.83c3.5,0,5.6-1.94,6.51-4.64.59-1.74.53-3.65,0-5.41-.75-2.49-2.32-4.83-5.96-5.42h-1.29c-3.72-6.61-4.29-12.35-4.17-15.68-.03-2.82,1.32-9.01,4.23-14.16h.21c4.39-.51,7.13-1.91,7.64-6.96.05-.5.05-1.02.01-1.52-.3-4.11-1.33-8.3-8.14-9.36ZM221.62,118.27H37.27c-.18,0-.35.02-.53.02-8.25,0-14.93-6.68-14.93-14.93s6.68-14.93,14.93-14.93c.18,0,.36.02.53.03v-.03h185.41c-1.89,3.49-3.94,8.7-4.08,15.29-.13,6.16,1.47,11.15,3.02,14.55Z"/>
  <path d="M227.34,141.18H33.58c-.35,0-.7.01-1.05.05-.32,0-.64-.05-.96-.05-17.44,0-31.57,14.14-31.57,31.57s14.14,31.57,31.57,31.57c.15,0,.29-.02.44-.02.15,0,.31.02.46.02h195.83c3.5,0,5.6-1.94,6.51-4.64.59-1.74.53-3.65,0-5.41-.75-2.49-2.32-4.83-5.96-5.42h-1.29c-3.72-6.61-4.29-12.35-4.17-15.68-.03-2.82,1.32-9.01,4.23-14.16h.21c4.39-.51,7.13-1.91,7.64-6.96.05-.5.05-1.02.01-1.52-.3-4.11-1.33-8.3-8.14-9.36ZM221.62,188.86H37.27c-.18,0-.35.02-.53.02-8.25,0-14.93-6.68-14.93-14.93s6.68-14.93,14.93-14.93c.18,0,.36.02.53.03v-.03h185.41c-1.89,3.49-3.94,8.7-4.08,15.29-.13,6.16,1.47,11.15,3.02,14.55Z"/>
</svg>