<?xml version="1.0" encoding="UTF-8"?>
<svg id="Capa_2" data-name="Capa 2" xmlns="http://www.w3.org/2000/svg" viewBox="0 0 230.47 227.98">
  <path d="M62.7,227.98h41.53v-125.41h-41.53s.63,124.79,0,125.41Z"/>
  <rect y="159.46" width="40.28" height="68.52"/>
  <path d="M128.34,227.98h39.02v-91.77h-39.04s.82,90.83.02,91.77Z"/>
  <rect x="191.02" y="71.84" width="39.45" height="156.15"/>
  <path d="M18.27,110.88c7.57,0,13.7-6.14,13.7-13.7,0-2.33-.59-4.52-1.61-6.45l44.25-36.26c2.39,2.03,5.48,3.25,8.85,3.25,4.61,0,8.68-2.28,11.16-5.77l39.6,18.29c-.06.53-.1,1.06-.1,1.61,0,7.57,6.14,13.7,13.7,13.7s13.7-6.14,13.7-13.7c0-2.23-.54-4.32-1.48-6.18l42.81-40.76c2.23,1.57,4.94,2.5,7.88,2.5,7.57,0,13.7-6.14,13.7-13.7s-6.14-13.7-13.7-13.7-13.7,6.14-13.7,13.7c0,2.69.79,5.19,2.13,7.31l-42.66,40.22c-2.36-1.94-5.38-3.1-8.68-3.1-5.08,0-9.51,2.77-11.88,6.89l-39.17-17.85c.24-1.01.38-2.07.38-3.15,0-7.57-6.14-13.7-13.7-13.7s-13.7,6.14-13.7,13.7c0,2.31.58,4.49,1.59,6.4l-44.07,36.45c-2.41-2.11-5.56-3.4-9.02-3.4-7.57,0-13.7,6.14-13.7,13.7s6.14,13.7,13.7,13.7Z"/>
</svg>